<?xml version="1.0" standalone="no"?>
<!DOCTYPE svg PUBLIC "-//W3C//DTD SVG 20010904//EN"
 "http://www.w3.org/TR/2001/REC-SVG-20010904/DTD/svg10.dtd">
<svg version="1.0" xmlns="http://www.w3.org/2000/svg"
 width="80.000000pt" height="80.000000pt" viewBox="0 0 80.000000 80.000000"
 preserveAspectRatio="xMidYMid meet">
<metadata>
Created by potrace 1.14, written by Peter Selinger 2001-2017
</metadata>
<g transform="translate(0.000000,80.000000) scale(0.100000,-0.100000)"
fill="#000000" stroke="none">
<path d="M0 400 l0 -400 155 0 c129 0 153 2 149 14 -3 8 -1 23 5 34 8 16 7 21
-4 26 -24 9 -18 29 7 23 14 -4 29 0 40 10 17 15 19 15 36 0 10 -10 28 -17 40
-17 11 0 24 -5 27 -10 4 -6 15 -8 25 -5 18 6 67 -18 82 -39 4 -6 -1 -16 -10
-23 -14 -10 6 -12 115 -13 l131 0 2 400 1 400 -401 0 -400 0 0 -400z m426 352
c-5 -15 0 -18 30 -17 27 1 43 -5 65 -28 16 -16 26 -34 22 -40 -4 -7 0 -8 11
-4 10 4 21 7 25 7 11 0 1 51 -12 68 -7 8 -7 16 0 23 11 11 64 -98 81 -166 16
-64 23 -143 12 -125 -8 12 -10 8 -11 -15 0 -16 -3 -24 -6 -17 -10 25 -43 -62
-43 -113 0 -56 -14 -91 -23 -59 -19 67 -18 82 7 109 35 38 48 90 36 145 l-9
45 4 -48 c3 -30 1 -46 -5 -42 -6 3 -11 -6 -11 -22 -2 -26 -2 -26 -6 -4 -4 19
-7 21 -14 10 -8 -12 -10 -12 -18 1 -6 8 -13 11 -17 7 -4 -3 -1 -14 6 -22 10
-13 11 -24 1 -57 -7 -22 -14 -58 -16 -78 -5 -51 -62 -112 -144 -156 -74 -39
-101 -38 -128 4 -10 15 -35 44 -55 65 -34 34 -64 101 -61 134 0 7 -3 10 -8 7
-5 -3 -9 2 -9 11 0 9 5 13 10 10 6 -3 17 1 26 9 20 21 44 20 60 -1 13 -17 15
-17 25 0 5 9 18 18 27 18 27 2 -39 17 -80 18 -21 0 -38 3 -38 6 0 14 54 84 61
79 12 -7 68 96 62 113 -5 12 -8 12 -16 -3 -5 -11 -21 -29 -35 -41 l-26 -22
-28 21 c-16 11 -32 17 -35 14 -4 -3 -1 -6 5 -6 15 0 16 -35 2 -61 -12 -21 -27
-24 -50 -9 -9 6 -15 29 -16 68 -2 54 0 61 19 66 14 3 26 0 33 -9 10 -13 13
-12 18 11 8 32 41 68 54 60 5 -3 12 3 15 13 4 16 12 19 43 16 21 -2 45 1 52 7
9 8 20 8 38 -1 32 -14 34 -14 34 4 0 8 9 15 21 15 15 0 19 -5 15 -18z m184
-561 c0 -32 -33 -53 -65 -40 -18 7 -18 8 -2 8 25 1 47 25 47 51 0 12 5 18 10
15 6 -3 10 -19 10 -34z m-123 -37 c-3 -3 -12 -4 -19 -1 -8 3 -5 6 6 6 11 1 17
-2 13 -5z"/>
<path d="M420 675 c0 -3 6 -14 12 -25 10 -15 10 -22 0 -32 -11 -11 -15 -10
-23 5 -8 14 -14 16 -25 7 -10 -9 -17 -8 -30 4 -15 15 -17 15 -34 -6 -19 -25
-20 -62 -2 -80 9 -9 12 -9 13 3 1 7 5 3 9 -11 l8 -25 1 25 c2 23 3 22 19 -12
10 -21 29 -50 42 -65 l25 -28 3 27 c2 15 -2 36 -7 47 -14 25 -14 74 -1 66 6
-3 10 -15 10 -26 0 -10 4 -19 9 -19 4 0 14 -21 21 -46 15 -53 26 -44 29 25 2
41 -2 50 -23 64 -18 12 -24 24 -22 51 1 23 -4 38 -16 45 -10 6 -18 9 -18 6z
m-33 -87 c-3 -8 -6 -5 -6 6 -1 11 2 17 5 13 3 -3 4 -12 1 -19z"/>
<path d="M526 575 c-10 -8 -16 -19 -14 -25 2 -7 9 -6 22 3 10 8 17 19 15 25
-3 7 -10 6 -23 -3z"/>
<path d="M581 294 c0 -11 3 -14 6 -6 3 7 2 16 -1 19 -3 4 -6 -2 -5 -13z"/>
<path d="M342 28 c-18 -18 -15 -28 8 -28 13 0 20 7 20 20 0 23 -10 26 -28 8z"/>
<path d="M425 20 c-15 -17 -16 -20 -3 -20 9 0 19 7 22 16 10 25 1 27 -19 4z"/>
<path d="M480 10 c0 -5 5 -10 11 -10 5 0 7 5 4 10 -3 6 -8 10 -11 10 -2 0 -4
-4 -4 -10z"/>
</g>
</svg>
